<?xml version="1.0" encoding="UTF-8"?>
<svg id="Layer_1" data-name="Layer 1" xmlns="http://www.w3.org/2000/svg" xmlns:xlink="http://www.w3.org/1999/xlink" viewBox="0 0 100 107">
  <defs>
    <style>
      .cls-1 {
        fill: url(#linear-gradient-2);
      }

      .cls-2 {
        fill: none;
      }

      .cls-3 {
        fill: url(#linear-gradient-4);
      }

      .cls-4 {
        fill: url(#linear-gradient-3);
      }

      .cls-5 {
        fill: url(#linear-gradient-5);
      }

      .cls-6 {
        fill: #1e4d42;
      }

      .cls-7 {
        fill: url(#linear-gradient-7);
      }

      .cls-8 {
        fill: url(#linear-gradient-6);
      }

      .cls-9 {
        fill: url(#linear-gradient);
      }
    </style>
    <linearGradient id="linear-gradient" x1="50.2" y1="104.69" x2="50.2" y2="90.43" gradientUnits="userSpaceOnUse">
      <stop offset="0" stop-color="#1e4d42"/>
      <stop offset=".5" stop-color="#276754"/>
      <stop offset="1" stop-color="#276653"/>
    </linearGradient>
    <linearGradient id="linear-gradient-2" x1="50.2" y1="84.37" x2="50.2" y2="29.59" xlink:href="#linear-gradient"/>
    <linearGradient id="linear-gradient-3" x1="50.15" y1="28.77" x2="50.15" y2="-.2" xlink:href="#linear-gradient"/>
    <linearGradient id="linear-gradient-4" x1="20.69" y1="97.48" x2="20.69" y2="72.91" xlink:href="#linear-gradient"/>
    <linearGradient id="linear-gradient-5" x1="13.47" y1="62.26" x2="16.01" y2="32.99" gradientUnits="userSpaceOnUse">
      <stop offset="0" stop-color="#1e4d42"/>
      <stop offset=".5" stop-color="#276754"/>
      <stop offset="1" stop-color="#328469"/>
    </linearGradient>
    <linearGradient id="linear-gradient-6" x1="78.08" y1="98.17" x2="78.93" y2="73.56" xlink:href="#linear-gradient-5"/>
    <linearGradient id="linear-gradient-7" x1="87.02" y1="62.16" x2="84.49" y2="32.88" xlink:href="#linear-gradient"/>
  </defs>
  <rect class="cls-2" x="0" width="100" height="107"/>
  <path class="cls-9" d="M55.61,104.26c-.26.52-.71.85-1.09,1.02-2.27.74-4.62-.35-6.22-1.93-1.81-2.18-1.98-5.72-2.78-8.31h0c-.2-.91-.74-3.09-.94-3.97l1.31.45c3.14,1.14,6.6.9,9.69-.29-.75,2.42-1.14,5.05-.71,7.55.17,1.35.72,2.66.93,4.11.02.37.06.82-.19,1.37Z"/>
  <path class="cls-1" d="M73.71,59.82c-.06,6.64-2.17,13.32-6.35,18.55-9.12,11.68-25.61,11.65-34.61-.13-12.62-15.66-4.87-44.94,17.22-45.75h-.01c14.17-.17,23.99,14.15,23.75,27.33Z"/>
  <path class="cls-4" d="M63.3,29.8h0c-1.21.1-2.44-.36-3.57-.55-3.04-.7-6.46-1.41-9.54-1.61-2.81.26-7.38,1.27-10.88,2.13-1.17.33-2.75.39-3.68-.58C30.52,23.88,44.92.57,50.09,1.14c5.75-1.12,21.74,26.85,13.21,28.66Z"/>
  <path class="cls-6" d="M55.8,102.89c-.21-1.45-.76-2.76-.93-4.11-.43-2.5-.04-5.13.71-7.55-3.09,1.19-6.55,1.43-9.69.29l-1.31-.45c.2.88.74,3.06.94,3.96h0c.8,2.6.97,6.14,2.78,8.32,1.6,1.58,3.95,2.67,6.22,1.93.38-.17.83-.5,1.09-1.02.25-.55.21-1,.19-1.37ZM53.81,102.35c.11.49.09,1.03.06.95,0-.04,0-.02-.1.03-1.33.29-2.98-.57-3.97-1.56-1.34-1.92-1.77-4.87-2.63-7.23h.02l-.36-1.18c2.25.41,4.55.35,6.78-.11-.7,2.96-.55,6.21.2,9.1Z"/>
  <path class="cls-3" d="M32.24,84.97c-1.33,7.73-9.26,16.04-17.6,12.75-2.74-1.12-6.44-3.66-5.27-7.12.92-1.85,3-2.2,4.4-3.19,2.65-1.54,4.49-4.01,5.72-6.83.92-1.5,1.63-7.13,4.15-6.05h-.01c.59,1.05,2.05,3.66,2.6,4.67,1.38,2.49,3.52,4.39,6.01,5.77Z"/>
  <path class="cls-6" d="M26.23,79.2c-.55-1.01-2.01-3.62-2.6-4.66h.01c-2.52-1.09-3.23,4.54-4.15,6.04-1.23,2.82-3.07,5.29-5.72,6.83-1.4.99-3.48,1.34-4.4,3.19-1.17,3.46,2.53,6,5.27,7.12,8.34,3.29,16.27-5.02,17.6-12.75-2.49-1.38-4.63-3.28-6.01-5.77ZM23,76.7c.64,1.1,1.31,2.25,1.94,3.31,1.39,2.32,3.48,4.25,5.76,5.64-.4,1.79-1.32,3.6-2.42,5.17-3.36,5.26-10.27,8.11-15.43,3.58-1.08-.97-2.57-2.67-.82-3.58,4.12-1.71,7.91-5.12,9.4-9.42.67-1.52.97-3.2,1.57-4.7-.12-.23-.25-.45-.37-.67h0s-.01-.01-.01-.01c0,0,0,.01.01.01l.37.67Z"/>
  <path class="cls-5" d="M22.58,47.56v.02h.01c-1.02,2.9-1.62,6-2.15,9.02-2.13,5.36-7.99,8.48-13.58,6.23-2.05-.84-4.25-1.93-5.54-3.76l.35-3.94c.13-.05.25-.09.36-.13,5.75-1.13,5.17-4.47,6.9-9.03,3.18-8.7,9.05-12.72,18.31-10.04l.92.25-.52.84c-1.89,3.19-3.54,7.13-5.06,10.54Z"/>
  <path class="cls-6" d="M27.64,37.02l.52-.84-.92-.25c-9.26-2.68-15.13,1.34-18.31,10.04-1.73,4.56-1.15,7.9-6.9,9.03-.11.04-.23.08-.36.13-.27.12-.59.29-.92.68-.35.44-.38.94-.34,1.42.2.69.51,1.3.91,1.84,1.29,1.83,3.49,2.92,5.54,3.76,5.59,2.25,11.45-.87,13.58-6.23.53-3.02,1.13-6.12,2.15-9.02h-.01v-.02c1.52-3.41,3.17-7.35,5.06-10.54ZM2.43,56.98c.06-.03.13-.06.22-.09,6.38-1.6,6.13-5.11,7.79-10.36,2.58-7.69,7.56-11.61,15.49-9.47-1.88,3.14-3.45,6.6-5.02,9.85v-.02c-.98,2.57-2.24,7.13-2.38,8.85-2.59,5.9-8.94,7.19-14.02,3.49-.78-.55-1.76-1.42-2.08-2.25-.01-.02-.01-.03-.02-.05-.02-.04-.03.06-.06.09.02,0,.05-.02.08-.04h0Z"/>
  <path class="cls-6" d="M49.96,32.48h.01c-22.09.82-29.84,30.1-17.22,45.76,9,11.78,25.49,11.81,34.61.13,4.18-5.23,6.29-11.91,6.35-18.55.24-13.18-9.58-27.5-23.75-27.34ZM65.77,77.13c-8.25,10.87-23.43,10.9-31.79.13-3.91-4.88-5.91-11.18-5.97-17.45-.2-12.26,8.76-25.65,21.95-25.54,20.56.83,27.51,28.38,15.81,42.86Z"/>
  <path class="cls-6" d="M50.09,1.14c-5.17-.57-19.57,22.74-14.46,28.05.93.97,2.51.91,3.68.58,3.5-.86,8.07-1.87,10.88-2.13,3.08.2,6.5.91,9.54,1.61,1.13.19,2.36.65,3.57.54h0C71.83,27.99,55.84.02,50.09,1.14ZM63.02,27.99h-.03s0-.01,0-.01c-1.63-.19-4.42-1.04-6.06-1.4-2.17-.5-4.4-.92-6.66-1.12-4.38.22-8.55,1.54-12.67,2.32-2.04-.43-.35-5.79.18-7.39,1.92-5.32,6.91-15.76,12.3-17.81-.03,0-.07-.01-.09-.02h.13s-.03.01-.04.02c.11.02.25.02.36,0-.02-.01-.03-.01-.05-.02h.22c-.05.01-.1.02-.17.02,5.8,2.22,11.27,13.41,12.99,19.22.39,1.58,1.57,5.57-.41,6.19Z"/>
  <path class="cls-8" d="M85.85,97.81c-8.62,4.94-17.69-3.85-18.87-12.29l-.06-.51c2.09-1.02,4-2.42,5.45-4.2,1.3-1.48,1.96-3.27,2.85-5.01.23-.38.66-.78,1.2-.79l.58-.04c.85,4.22,2.92,8.29,5.9,11.41h.01c1.73,1.89,3.93,2.46,6.03,4.08,2.63,2.58-.79,6.3-3.09,7.35Z"/>
  <path class="cls-6" d="M88.94,90.46c-2.1-1.62-4.3-2.19-6.03-4.09h-.01c-2.98-3.11-5.05-7.18-5.9-11.4l-.58.04c-.54.01-.97.41-1.2.79-.89,1.74-1.55,3.53-2.85,5.01-1.45,1.78-3.36,3.18-5.45,4.2l.06.51c1.18,8.44,10.25,17.23,18.87,12.29,2.3-1.05,5.72-4.77,3.09-7.35ZM81.61,87.59h0s-.01.01-.01.01c1.54,1.88,4.1,3,5.89,4.33.19.19.22.31.26.5.01,1.48-1.55,2.58-2.98,3.43-3.98,2.36-8.92.91-11.94-2.47-1.92-2.1-3.6-4.79-4.2-7.56,1.83-1.08,3.52-2.46,4.85-4.16,1.11-1.29,1.88-3.07,2.61-4.56,1.04,3.85,2.83,7.49,5.52,10.48Z"/>
  <path class="cls-7" d="M99,57.23c-.88,2.99-3.8,4.51-6.45,5.6-5.58,2.25-11.45-.89-13.58-6.25-.52-3.02-1.13-6.12-2.15-9.02v-.02c-1.31-2.95-2.72-6.28-4.3-9.18l-.22-2.48c9.19-2.59,14.99,1.42,18.17,10.09,1.73,4.55,1.16,7.9,6.91,9.03.34.14.8.23,1.28.81.35.44.37.93.34,1.42Z"/>
  <path class="cls-6" d="M98.66,55.81c-.48-.58-.94-.67-1.28-.81-5.75-1.13-5.18-4.48-6.91-9.03-3.18-8.67-8.98-12.68-18.17-10.09-.05.01-.09.03-.14.04l-.92.25.52.84c.26.44.51.89.76,1.35,1.58,2.9,2.99,6.23,4.3,9.18v.02c1.02,2.9,1.63,6,2.15,9.02,2.13,5.36,8,8.5,13.58,6.25,2.65-1.09,5.57-2.61,6.45-5.6.03-.49.01-.98-.34-1.42ZM73.49,37.07c7.94-2.15,12.91,1.76,15.49,9.47,1.66,5.25,1.39,8.75,7.79,10.36.09.03.16.06.21.09.04.02.07.03.09.05h0c-.03-.05-.05-.14-.07-.1-.01.02-.01.03-.02.05-.3.83-1.3,1.7-2.08,2.25-5.08,3.69-11.43,2.4-14.02-3.49-.15-1.69-1.4-6.26-2.37-8.82,0-.01-.01-.02-.01-.03-1.55-3.25-3.13-6.7-5.01-9.83h0Z"/>
</svg>