<?xml version="1.0" encoding="UTF-8"?>
<svg id="Layer_1" data-name="Layer 1" xmlns="http://www.w3.org/2000/svg" viewBox="0 0 200 50">
  <defs>
    <style>
      .cls-1 {
        fill: none;
      }

      .cls-2 {
        fill: #fffbf2;
      }

      .cls-3 {
        fill: #fffbf0;
      }
    </style>
  </defs>
  <rect class="cls-1" width="46.57" height="50"/>
  <path class="cls-2" d="M25.9,49.42c-.12.24-.34.39-.53.48-1.1.34-2.24-.16-3.02-.9-.88-1.02-.96-2.67-1.35-3.88h-.01c-.1-.42-.36-1.44-.46-1.85l.64.21c1.53.53,3.2.42,4.71-.13-.36,1.13-.56,2.36-.34,3.52.08.63.35,1.24.45,1.91.01.17.03.38-.09.64Z"/>
  <path class="cls-2" d="M14.85,40.66c-.62,3.61-4.31,7.49-8.19,5.96-1.28-.52-3-1.71-2.45-3.33.43-.87,1.4-1.03,2.05-1.49,1.24-.72,2.09-1.87,2.66-3.19.43-.7.76-3.31,1.92-2.83.27.49.95,1.71,1.21,2.18.64,1.16,1.64,2.05,2.8,2.7Z"/>
  <path class="cls-2" d="M12.04,16.55l-.21.41c-.75,1.56-1.35,3.46-1.91,5.11-.35,1.39-.51,2.86-.63,4.29-.77,2.58-3.36,4.27-6.05,3.45-1.28-.4-2.69-.99-3.22-2.35-.04-.22-.05-.46.1-.67.2-.29.41-.35.56-.43,2.62-.76,2.22-2.29,2.83-4.48,1.12-4.18,3.68-6.28,8.09-5.41,0,0,.44.08.44.08Z"/>
  <path class="cls-2" d="M34.32,27.96c-.03,3.1-1.01,6.22-2.96,8.67-4.24,5.46-11.93,5.44-16.12-.06-5.87-7.32-2.27-21,8.02-21.38h0c6.6-.08,11.17,6.61,11.06,12.77Z"/>
  <path class="cls-2" d="M29.36,13.19c-.57.05-1.14-.16-1.67-.25-1.42-.32-3.02-.65-4.46-.74-1.31.12-3.45.59-5.09.98-.54.15-1.29.18-1.72-.26C14.04,10.47,20.77-.25,23.18,0c2.69-.51,10.16,12.35,6.18,13.18Z"/>
  <path class="cls-2" d="M40.69,46.66c-3.93,2.44-8.3-1.51-8.98-5.43l-.04-.24c.95-.51,1.82-1.19,2.47-2.05.58-.71.86-1.56,1.25-2.39.1-.18.3-.37.54-.39l.27-.03c.47,1.96,1.49,3.83,2.94,5.24.84.86,1.87,1.09,2.87,1.81,1.27,1.16-.26,2.95-1.32,3.48Z"/>
  <path class="cls-2" d="M46.55,27.82c-.53,1.35-1.95,1.95-3.22,2.35-2.68.82-5.28-.88-6.05-3.46-.12-1.43-.28-2.9-.63-4.29-.5-1.45-1.02-3.07-1.63-4.49v-1.12c4.38-.84,6.91,1.27,8.03,5.43.62,2.19.22,3.73,2.84,4.48.15.08.36.14.56.43.15.22.13.45.1.67Z"/>
  <path class="cls-3" d="M25.99,48.78c-.1-.67-.37-1.28-.45-1.91-.22-1.16-.02-2.39.34-3.52-1.51.55-3.18.66-4.71.13l-.64-.21c.1.41.36,1.43.46,1.85h.01c.39,1.21.47,2.86,1.35,3.88.78.74,1.92,1.24,3.02.9.19-.09.41-.24.53-.48.12-.26.1-.47.09-.64ZM25.06,48.97s-.01,0-.05.02c-.65.13-1.45-.27-1.93-.73-.65-.89-.86-2.27-1.28-3.37h.01l-.17-.55c1.09.19,2.21.16,3.29-.05-.34,1.38-.26,2.89.1,4.24.06.23.05.48.03.44Z"/>
  <path class="cls-2" d="M12.05,37.96c-.26-.47-.94-1.69-1.21-2.18-1.16-.48-1.49,2.13-1.92,2.83-.57,1.32-1.42,2.47-2.66,3.19-.65.46-1.62.62-2.05,1.49-.55,1.62,1.17,2.81,2.45,3.33,3.88,1.53,7.57-2.35,8.19-5.96-1.16-.65-2.16-1.54-2.8-2.7ZM13.01,43.38c-1.57,2.45-4.79,3.79-7.19,1.67-.5-.45-1.19-1.24-.38-1.67,1.92-.8,3.68-2.39,4.38-4.4.32-.72.45-1.5.74-2.2.29.51.61,1.05.9,1.55.65,1.08,1.62,1.99,2.68,2.64-.19.83-.62,1.68-1.13,2.41Z"/>
  <path class="cls-2" d="M11.6,16.47c-4.41-.87-6.97,1.23-8.09,5.41-.61,2.19-.21,3.72-2.83,4.48-.15.08-.36.14-.56.43-.15.21-.14.45-.1.67.53,1.36,1.94,1.95,3.22,2.35,2.69.82,5.28-.87,6.05-3.45.12-1.43.28-2.9.63-4.29.56-1.65,1.16-3.55,1.91-5.11l.21-.41s-.44-.08-.44-.08ZM.98,27.27s.05-.03.08-.05c2.89-1,2.63-2.63,3.19-5.14.88-3.68,3.03-5.71,6.8-5.03-.75,1.53-1.34,3.2-1.93,4.78h.01c-.35,1.23-.74,3.41-.74,4.21-.96,2.85-3.85,3.71-6.36,2.19-.39-.22-.87-.59-1.05-.96,0-.01-.02-.02-.02-.03,0,0-.02.03-.03.05,0-.01.03-.02.05-.02h0Z"/>
  <path class="cls-2" d="M23.26,15.18h0c-10.29.39-13.89,14.07-8.02,21.39,4.19,5.5,11.88,5.52,16.12.06,1.95-2.45,2.93-5.57,2.96-8.67.11-6.16-4.46-12.85-11.06-12.78ZM30.63,36.04c-3.84,5.08-10.92,5.09-14.81.06-1.82-2.28-2.75-5.22-2.78-8.15-.1-5.73,4.08-11.99,10.22-11.94h.01c9.57.39,12.81,13.26,7.36,20.03Z"/>
  <path class="cls-2" d="M23.18,0c-2.41-.26-9.14,10.46-6.76,12.91.43.44,1.18.41,1.72.26,1.64-.39,3.78-.86,5.09-.98,1.44.09,3.04.42,4.46.74.53.09,1.1.3,1.67.25C33.34,12.36,25.87-.5,23.18,0ZM29.23,12.37l-.02-.02c-.76-.08-2.06-.47-2.83-.64-1.01-.22-2.05-.42-3.11-.51-2.04.1-3.99.71-5.92,1.07-.96-.2-.17-2.66.08-3.4.9-2.44,3.24-7.24,5.75-8.19-.02,0-.03,0-.04,0h.06s-.01,0-.02,0c.05,0,.11,0,.17,0,0,0,0,0-.02,0h.1s-.05,0-.07,0c2.71,1.03,5.25,6.17,6.06,8.84.18.73.73,2.56-.19,2.85Z"/>
  <path class="cls-2" d="M42.01,43.18c-1-.72-2.03-.95-2.87-1.81-1.45-1.41-2.47-3.28-2.94-5.24l-.27.03c-.24.02-.44.21-.54.39-.39.83-.67,1.68-1.25,2.39-.65.86-1.52,1.54-2.47,2.05l.04.24c.68,3.92,5.05,7.87,8.98,5.43,1.06-.53,2.59-2.32,1.32-3.48ZM34.67,39.32c.49-.62.83-1.47,1.14-2.17.55,1.79,1.44,3.46,2.74,4.81v-.02c.75.86,1.96,1.34,2.82,1.93.09.08.11.14.13.23.03.69-.68,1.23-1.33,1.65-1.82,1.17-4.14.57-5.6-.96-.93-.95-1.76-2.18-2.08-3.47.83-.52,1.59-1.18,2.18-2Z"/>
  <path class="cls-2" d="M46.45,27.15c-.2-.29-.41-.35-.56-.43-2.62-.75-2.22-2.29-2.84-4.48-1.12-4.16-3.65-6.27-8.03-5.43-.02,0-.03.01-.05.01l-.44.08.21.41c.1.2.19.41.28.62.61,1.42,1.13,3.04,1.63,4.49.35,1.39.51,2.86.63,4.29.77,2.58,3.37,4.28,6.05,3.46,1.27-.4,2.69-1,3.22-2.35.03-.22.05-.45-.1-.67ZM35.53,17.4c3.77-.68,5.92,1.35,6.8,5.03.55,2.51.28,4.13,3.19,5.14.04.01.07.03.09.04-.18.37-.68.74-1.06.97-2.5,1.52-5.4.65-6.36-2.19,0-.79-.39-2.98-.74-4.21h0c-.59-1.57-1.17-3.24-1.93-4.78h0ZM45.62,27.59s.02.03.03.05c0,0-.02,0-.04-.03v-.02h.01Z"/>
  <path class="cls-3" d="M180.95,49.82v-21.95h3.24v9.87h.06l10.18-9.87h3.99l-11.93,11.43.06-1.59,12.49,12.11h-4.05l-10.74-10.24h-.06v10.24h-3.24,0Z"/>
  <path class="cls-3" d="M156.44,49.82l9.78-21.95h2.68l9.81,21.95h-3.3l-2.68-6.23,1.46.87h-13.26l1.43-.87-2.65,6.23h-3.27ZM167.52,31.45l-4.7,11.15-.78-.75h10.99l-.72.75-4.73-11.15h-.06Z"/>
  <path class="cls-3" d="M134.13,49.82l9.78-21.95h2.68l9.81,21.95h-3.3l-2.68-6.23,1.46.87h-13.26l1.43-.87-2.65,6.23h-3.27ZM145.22,31.45l-4.7,11.15-.78-.75h10.99l-.72.75-4.73-11.15h-.06Z"/>
  <path class="cls-3" d="M113.83,49.82v-21.95h2.46l13.36,17.62h-.78v-17.62h2.99v21.95h-2.4l-13.36-17.62h.72v17.62h-2.99Z"/>
  <path class="cls-3" d="M106.15,49.82v-21.95h3.24v21.95h-3.24Z"/>
  <path class="cls-3" d="M86.76,49.82v-21.95h3.24v9.87h.06l10.18-9.87h3.99l-11.93,11.43.06-1.59,12.49,12.11h-4.05l-10.74-10.24h-.06v10.24s-3.24,0-3.24,0Z"/>
  <path class="cls-3" d="M79.09,49.82v-21.95h3.24v21.95h-3.24Z"/>
  <path class="cls-3" d="M52.95,49.82v-21.95h2.71l8.62,16.07h-.97l8.56-16.07h2.65v21.95h-2.9v-17.37h.68l-7.57,14.01h-1.96l-7.66-14.04h.75v17.41h-2.93.02Z"/>
  <path class="cls-3" d="M152.52,22.59c-1.56,0-2.97-.26-4.23-.78-1.27-.52-2.36-1.28-3.27-2.27-.89-1-1.58-2.18-2.05-3.55-.48-1.39-.72-2.95-.72-4.67s.24-3.27.72-4.64c.48-1.39,1.16-2.57,2.05-3.55.89-1,1.97-1.75,3.24-2.27s2.69-.78,4.26-.78,2.97.26,4.24.78,2.34,1.27,3.24,2.24c.91.98,1.61,2.16,2.09,3.55.48,1.37.72,2.92.72,4.64s-.24,3.28-.72,4.67c-.48,1.39-1.17,2.58-2.09,3.58-.89,1-1.97,1.75-3.24,2.27s-2.68.78-4.24.78ZM152.52,19.79c1.45,0,2.69-.33,3.7-1,1.04-.66,1.83-1.63,2.37-2.9.56-1.27.84-2.79.84-4.58s-.27-3.31-.81-4.58c-.54-1.27-1.33-2.22-2.37-2.86-1.02-.66-2.26-1-3.74-1s-2.7.33-3.74,1c-1.02.64-1.81,1.6-2.37,2.86-.54,1.27-.81,2.79-.81,4.58s.27,3.29.81,4.58c.56,1.27,1.35,2.23,2.37,2.9,1.04.66,2.28,1,3.74,1h.01Z"/>
  <path class="cls-3" d="M120.23,22.31V.36h7.75c2.41,0,4.45.43,6.13,1.28,1.68.83,2.96,2.07,3.83,3.71.89,1.62,1.34,3.61,1.34,5.98s-.45,4.37-1.34,6.01c-.87,1.62-2.15,2.85-3.83,3.71-1.68.85-3.73,1.28-6.13,1.28h-7.75v-.02ZM123.47,19.6h4.33c2.72,0,4.75-.69,6.1-2.06,1.35-1.39,2.02-3.47,2.02-6.23s-.69-4.83-2.06-6.2c-1.35-1.37-3.37-2.06-6.07-2.06h-4.33v16.55h0Z"/>
  <path class="cls-3" d="M112.55,22.31V.36h3.24v21.95s-3.24,0-3.24,0Z"/>
  <path class="cls-3" d="M100.67,22.59c-2.39,0-4.4-.45-6.04-1.34-1.64-.91-2.89-2.21-3.74-3.89-.83-1.68-1.25-3.68-1.25-6.01s.43-4.33,1.28-6.01c.87-1.68,2.11-2.98,3.71-3.89,1.62-.91,3.56-1.37,5.82-1.37,1.04,0,2.02.1,2.96.31.93.19,1.79.48,2.58.87.81.39,1.52.88,2.12,1.46l-1.15,2.52c-.97-.83-1.99-1.42-3.05-1.77-1.04-.37-2.19-.56-3.46-.56-2.43,0-4.28.74-5.54,2.21-1.27,1.45-1.9,3.53-1.9,6.23s.65,4.86,1.96,6.29c1.31,1.43,3.25,2.15,5.82,2.15.94,0,1.85-.08,2.74-.25.91-.19,1.79-.45,2.62-.78l-.65,1.62v-7.25h-5.36v-2.43h8.06v10.34c-.6.31-1.33.58-2.18.81-.83.23-1.71.4-2.65.53-.91.15-1.82.22-2.71.22h.01Z"/>
  <path class="cls-3" d="M82.72,22.31V.36h3.24v21.95s-3.24,0-3.24,0Z"/>
  <path class="cls-3" d="M75.04,22.31V.36h3.24v21.95s-3.24,0-3.24,0Z"/>
  <path class="cls-3" d="M63.16,22.59c-2.39,0-4.4-.45-6.04-1.34-1.64-.91-2.89-2.21-3.74-3.89-.83-1.68-1.25-3.68-1.25-6.01s.43-4.33,1.28-6.01c.87-1.68,2.11-2.98,3.71-3.89,1.62-.91,3.56-1.37,5.82-1.37,1.04,0,2.02.1,2.96.31.93.19,1.8.48,2.58.87.81.39,1.52.88,2.12,1.46l-1.15,2.52c-.98-.83-1.99-1.42-3.05-1.77-1.04-.37-2.19-.56-3.46-.56-2.43,0-4.28.74-5.54,2.21-1.27,1.45-1.9,3.53-1.9,6.23s.65,4.86,1.96,6.29c1.31,1.43,3.25,2.15,5.82,2.15.93,0,1.85-.08,2.74-.25.91-.19,1.79-.45,2.62-.78l-.65,1.62v-7.25h-5.36v-2.43h8.06v10.34c-.6.31-1.33.58-2.18.81-.83.23-1.71.4-2.65.53-.91.15-1.82.22-2.71.22h.01Z"/>
</svg>